<svg xmlns="http://www.w3.org/2000/svg" version="1.1" xmlns:xlink="http://www.w3.org/1999/xlink" xmlns:svgjs="http://svgjs.dev/svgjs" width="2000" height="1252" viewBox="0 0 2000 1252"><g transform="matrix(1,0,0,1,-1.2121212121212466,-2.01935483870966)"><svg viewBox="0 0 396 248" data-background-color="#ffffff" preserveAspectRatio="xMidYMid meet" height="1252" width="2000" xmlns="http://www.w3.org/2000/svg" xmlns:xlink="http://www.w3.org/1999/xlink"><g id="tight-bounds" transform="matrix(1,0,0,1,0.2400000000000091,0.4000000000000057)"><svg viewBox="0 0 395.52 247.2" height="247.2" width="395.52"><g><svg></svg></g><g><svg viewBox="0 0 395.52 247.2" height="247.2" width="395.52"><g transform="matrix(1,0,0,1,75.54432,78.2731380204778)"><svg viewBox="0 0 244.43135999999998 90.65372395904437" height="90.65372395904437" width="244.43135999999998"><g><svg viewBox="0 0 244.43135999999998 90.65372395904437" height="90.65372395904437" width="244.43135999999998"><g><svg viewBox="0 0 244.43135999999998 90.65372395904437" height="90.65372395904437" width="244.43135999999998"><g><svg viewBox="0 0 244.43135999999998 90.65372395904437" height="90.65372395904437" width="244.43135999999998"><g id="textblocktransform"><svg viewBox="0 0 244.43135999999998 90.65372395904437" height="90.65372395904437" width="244.43135999999998" id="textblock"><g><svg viewBox="0 0 244.43135999999998 90.65372395904437" height="90.65372395904437" width="244.43135999999998"><g transform="matrix(1,0,0,1,0,0)"><svg width="244.43135999999998" viewBox="1.66 -31.3 85.83 31.84" height="90.65372395904437" data-palette-color="#0f3e67"><path d="M20.31-7.71L20.36-10.69Q20.36-16.5 19.73-19.24L19.73-19.24Q20.12-19.97 18.55-19.97L18.55-19.97Q16.89-19.97 14.26-19.14 11.62-18.31 9.96-17.48L9.96-17.48Q6.01-15.58 5.57-13.77L5.57-13.77 5.57-0.49 2.29-0.49Q1.66-2.15 1.66-9.81L1.66-9.81Q1.66-16.65 1.93-19.87 2.2-23.1 2.34-23.54L2.34-23.54Q3.61-24.37 4.39-24.37L4.39-24.37Q5.62-24.37 5.62-21.48L5.62-21.48Q5.62-20.36 5.49-19.31 5.37-18.26 5.37-17.87L5.37-17.87Q13.28-23.68 17.63-23.68L17.63-23.68Q22.56-23.68 23.24-15.72L23.24-15.72Q23.54-12.94 23.54-8.01L23.54-8.01 23.49-4.15Q23.49-2 23.58 0L23.58 0Q23.1 0.29 22.8 0.29L22.8 0.29Q22.66 0.24 22.17 0.15 21.68 0.05 20.9 0L20.9 0Q20.41-1.95 20.36-3.98 20.31-6.01 20.31-7.71L20.31-7.71ZM27.63-22.95L30.71-22.95Q31.35-13.82 31.78-1.81L31.78-1.81Q31.49-0.29 29.44-0.29L29.44-0.29Q28.9-0.29 28.34-0.51 27.78-0.73 27.63-1.12L27.63-1.12 27.63-22.95ZM26.17-29.59L26.17-29.59Q26.17-31.3 28.17-31.3L28.17-31.3Q29.49-31.3 30.32-30.71L30.32-30.71Q30.47-30.18 30.47-29.66 30.47-29.15 30.08-28.66L30.08-28.66Q29.68-28.17 28.9-28.17 28.12-28.17 27.34-28.54 26.56-28.91 26.17-29.59ZM57.86-17.82L57.86-17.82Q55.81-19.29 52.58-19.29L52.58-19.29Q49.56-19.29 46.97-18.16L46.97-18.16Q42.08-16.11 40.28-12.89L40.28-12.89Q39.5-11.43 39.5-9.77L39.5-9.77Q39.5-9.47 39.5-8.13 39.5-6.79 39.99-4.52 40.47-2.25 40.47 0.1L40.47 0.1Q39.45 0.15 38.81 0.34 38.18 0.54 37.74 0.54 37.3 0.54 36.98 0.15 36.66-0.24 36.27-1.37L36.27-1.37Q36.23-1.66 36.08-3.03 35.93-4.39 35.71-6.35 35.49-8.3 35.22-10.62 34.96-12.94 34.71-15.19L34.71-15.19Q34.17-20.07 33.88-22.36L33.88-22.36Q33.88-23.54 35.59-23.54L35.59-23.54Q36.62-23.54 37.2-22.68 37.79-21.83 38.13-20.73 38.47-19.63 38.59-18.55 38.72-17.48 38.81-17.04L38.81-17.04Q45.26-22.8 54.83-22.8L54.83-22.8Q55.9-22.8 57.08-22.75L57.08-22.75Q57.37-22.8 57.81-22.8 58.25-22.8 58.69-22.22L58.69-22.22Q59.22-21.53 59.22-20.56L59.22-20.56Q59.22-18.12 57.86-17.82ZM62.69-9.28L62.69-9.28Q62.69-15.04 67.67-18.55L67.67-18.55Q71.62-21.34 77.19-21.92L77.19-21.92Q77.48-21.92 78.56-21.92 79.63-21.92 81.44-21.29L81.44-21.29Q85.44-19.92 86.91-16.46L86.91-16.46Q87.49-15.09 87.49-14.14 87.49-13.18 87.44-12.79L87.44-12.79Q87.44-6.69 82.81-3.17L82.81-3.17Q78.51 0.05 72.06 0.05L72.06 0.05Q67.42 0.05 65.06-2.1 62.69-4.25 62.69-9.28ZM66.06-8.11L66.06-8.11Q66.06-5.08 67.67-4L67.67-4Q68.89-3.22 71.77-3.22 74.65-3.22 76.85-3.66 79.05-4.1 80.75-5.18L80.75-5.18Q84.42-7.52 84.42-12.45L84.42-12.45Q84.42-15.38 82.85-17.24L82.85-17.24Q81.14-19.24 78.36-19.24L78.36-19.24Q76.46-18.9 74.53-18.51 72.6-18.12 70.89-16.99L70.89-16.99Q67.18-14.6 66.06-8.11Z" opacity="1" transform="matrix(1,0,0,1,0,0)" fill="#000000" class="wordmark-text-0" data-fill-palette-color="primary" id="text-0"></path></svg></g></svg></g></svg></g></svg></g></svg></g></svg></g></svg></g><g><path d="M0 123.6c0-68.262 55.338-123.6 123.6-123.6 48.094 0 89.772 27.468 110.202 67.573h-4.609c-20.082-37.769-59.834-63.485-105.593-63.485-66.005 0-119.512 53.508-119.512 119.512 0 66.005 53.508 119.512 119.512 119.512 45.759 0 85.511-25.716 105.593-63.485l4.609 0c-20.43 40.104-62.108 67.573-110.202 67.573-68.262 0-123.6-55.338-123.6-123.6z" fill="#000000" stroke="transparent" data-fill-palette-color="tertiary"></path></g></svg></g><defs></defs></svg><rect width="395.52" height="247.2" fill="none" stroke="none" visibility="hidden"></rect></g></svg></g></svg>